<?xml version="1.0" standalone="no"?>
<!DOCTYPE svg PUBLIC "-//W3C//DTD SVG 20010904//EN"
 "http://www.w3.org/TR/2001/REC-SVG-20010904/DTD/svg10.dtd">
<svg version="1.0" xmlns="http://www.w3.org/2000/svg"
 width="1498.000000pt" height="1498.000000pt" viewBox="0 0 1498.000000 1498.000000"
 preserveAspectRatio="xMidYMid meet">
<metadata>
Created by potrace 1.11, written by Peter Selinger 2001-2013
</metadata>
<g transform="translate(0.000000,1498.000000) scale(0.100000,-0.100000)"
fill="#000000" stroke="none">
<path d="M5555 12728 c-11 -6 -27 -19 -36 -30 -15 -19 -16 -19 -80 2 -83 28
-258 38 -366 20 -82 -13 -93 -20 -93 -59 0 -22 -3 -23 -42 -17 -257 38 -406
25 -556 -46 -53 -25 -87 -47 -93 -62 -10 -22 -17 -23 -152 -29 -228 -10 -350
-50 -444 -144 -43 -44 -58 -53 -86 -53 -45 0 -190 -27 -247 -46 -121 -41 -250
-125 -265 -174 -4 -12 -15 -20 -28 -20 -38 -1 -246 -77 -304 -112 -66 -40
-142 -121 -150 -160 -4 -22 -21 -39 -62 -65 -111 -71 -220 -187 -221 -235 0
-18 -8 -32 -22 -41 -165 -99 -278 -187 -278 -216 0 -15 11 -20 47 -26 27 -4
52 -9 56 -12 4 -3 -32 -32 -80 -65 -88 -59 -143 -105 -143 -119 0 -4 15 -10
34 -13 37 -7 162 -69 185 -91 17 -16 14 -18 -54 -33 -47 -11 -288 -81 -292
-86 -8 -8 20 -114 52 -201 20 -53 35 -99 33 -101 -3 -2 -51 8 -108 21 -56 14
-104 24 -105 23 -5 -5 22 -125 40 -177 9 -28 43 -92 76 -142 32 -49 59 -91 59
-92 0 -1 -63 -2 -139 -2 -77 0 -143 -3 -147 -7 -8 -9 92 -178 150 -253 21 -27
71 -83 110 -122 39 -40 68 -73 66 -73 -3 -1 -47 -3 -99 -5 -99 -4 -251 -32
-251 -46 0 -5 12 -15 28 -23 32 -16 104 -91 185 -193 32 -39 78 -88 103 -108
24 -20 42 -40 39 -44 -2 -5 -35 -11 -72 -14 -103 -8 -253 -38 -252 -51 1 -22
220 -191 296 -229 24 -12 43 -26 43 -31 0 -6 -38 -25 -83 -43 -45 -18 -104
-42 -132 -54 l-49 -22 43 -39 c57 -50 139 -103 245 -158 47 -25 86 -48 86 -51
0 -3 -38 -25 -84 -48 -131 -66 -196 -131 -196 -195 0 -20 8 -27 48 -39 121
-38 297 -62 412 -55 44 3 80 3 80 1 0 -2 -37 -41 -82 -86 -46 -45 -98 -104
-116 -132 -38 -58 -43 -53 88 -80 56 -11 112 -16 162 -13 43 3 78 2 78 -1 0
-4 -19 -31 -41 -61 -46 -61 -109 -180 -109 -206 0 -15 10 -16 87 -10 49 4 108
12 132 17 24 5 46 8 48 5 3 -3 -18 -45 -46 -93 -28 -49 -51 -94 -51 -100 0
-31 165 -20 248 17 52 23 65 19 51 -18 -6 -15 -13 -82 -16 -149 -5 -109 -4
-123 11 -129 9 -4 24 0 34 8 27 23 92 58 107 58 10 0 11 -7 3 -34 -14 -45 -2
-103 27 -132 13 -13 28 -24 33 -24 5 0 46 29 92 65 46 36 88 64 94 62 6 -2 14
-20 18 -41 4 -20 17 -57 28 -81 20 -43 21 -45 43 -30 13 8 36 33 52 55 17 22
34 38 39 37 5 -2 17 -29 26 -61 10 -31 30 -75 44 -97 31 -45 34 -45 122 22 28
22 53 39 57 39 3 0 15 -34 28 -75 12 -41 27 -75 33 -75 6 0 26 9 45 21 l33 20
23 -21 c28 -26 107 -54 223 -78 51 -11 92 -18 92 -17 0 2 -39 40 -86 86 -208
203 -364 452 -507 804 -105 260 -206 630 -248 905 -41 276 -24 645 41 892 149
568 521 949 1049 1073 495 117 1043 111 1416 -17 330 -112 603 -321 789 -601
164 -246 229 -458 202 -658 -9 -69 -19 -74 -121 -54 -76 14 -153 44 -276 105
-267 134 -456 189 -679 197 -165 6 -247 -6 -377 -56 -145 -56 -373 -211 -484
-327 -104 -110 -165 -216 -292 -509 -105 -242 -120 -266 -296 -490 -39 -49
-71 -98 -71 -109 0 -17 7 -18 99 -14 69 3 105 10 122 21 13 10 27 17 31 17 16
0 7 -37 -12 -55 -18 -17 -50 -100 -50 -131 0 -44 284 65 369 141 21 19 41 35
45 35 11 0 7 -38 -5 -46 -16 -10 -59 -111 -59 -139 0 -19 5 -25 21 -25 33 0
133 66 181 119 24 26 70 64 102 85 33 21 86 63 118 94 32 30 58 52 58 49 0 -4
-15 -28 -33 -54 -47 -66 -67 -124 -67 -188 0 -47 3 -55 19 -55 23 0 171 128
237 205 27 30 72 69 101 85 60 34 150 122 209 204 21 30 43 55 47 56 5 0 52
-35 105 -79 433 -351 705 -431 1112 -325 145 38 285 96 531 222 3 1 9 -102 12
-230 10 -352 52 -645 114 -793 40 -96 40 -97 9 -86 -90 35 -552 85 -776 85
-142 0 -162 -3 -237 -27 -135 -45 -186 -95 -423 -418 -259 -353 -489 -545
-763 -639 -135 -46 -226 -98 -302 -173 -67 -66 -215 -274 -215 -302 0 -35 115
-81 180 -72 l40 5 0 -48 c0 -32 10 -69 31 -113 39 -84 49 -93 86 -73 46 23
208 152 232 183 l21 28 20 -25 c35 -42 104 -110 112 -110 18 0 6 -29 -24 -62
-18 -19 -46 -61 -62 -93 -24 -50 -27 -67 -24 -119 3 -34 7 -67 9 -75 3 -9 -6
-15 -25 -18 -109 -16 -206 -141 -206 -265 0 -70 12 -104 52 -145 l31 -32 -12
-58 c-13 -59 -57 -150 -89 -181 -80 -79 -249 -169 -731 -387 -113 -51 -246
-111 -294 -134 -49 -22 -90 -41 -92 -41 -3 0 -28 -11 -57 -24 -162 -74 -291
-130 -541 -237 -152 -66 -280 -119 -282 -119 -3 0 -24 -9 -48 -19 -23 -11 -82
-36 -132 -56 -49 -20 -103 -42 -120 -49 -59 -26 -93 -39 -285 -116 -107 -43
-225 -92 -262 -108 -69 -31 -78 -31 -78 0 0 35 -62 141 -111 190 -99 99 -266
150 -386 118 -106 -29 -196 -97 -239 -182 -21 -41 -28 -48 -55 -48 -56 0 -109
-40 -144 -109 -23 -47 -31 -178 -15 -247 13 -53 13 -55 -11 -72 -162 -113
-210 -339 -98 -467 40 -45 97 -67 141 -55 18 6 34 10 35 10 1 0 4 -13 8 -30 8
-36 93 -116 160 -149 39 -20 69 -25 151 -29 123 -5 205 15 426 107 347 144
556 218 1503 533 1008 334 1059 350 1299 403 303 68 563 91 1161 105 259 5
515 13 570 15 323 18 632 73 890 159 128 42 132 43 240 39 107 -4 116 -3 305
47 511 134 794 267 1275 601 139 96 252 155 460 239 310 125 502 255 672 456
37 45 79 88 93 96 14 8 68 21 120 27 193 24 289 49 440 114 84 36 269 142 326
186 65 51 147 129 189 180 45 55 51 58 74 48 48 -19 217 -11 321 17 170 44
378 133 457 193 19 14 35 24 37 22 1 -2 16 -28 32 -57 53 -99 132 -157 429
-312 66 -34 134 -70 150 -80 17 -9 89 -48 160 -85 72 -37 144 -75 160 -85 17
-9 82 -44 145 -77 63 -33 176 -92 251 -132 75 -39 148 -71 163 -71 25 0 59 25
68 50 3 9 36 -3 109 -39 l105 -52 100 3 99 3 -1 30 c0 17 -2 41 -5 55 -3 19 0
24 11 21 70 -21 146 -6 180 34 19 23 -13 87 -72 140 -44 39 -48 47 -38 65 25
46 -80 160 -180 195 -23 8 -48 21 -56 30 -54 54 -165 112 -389 204 -303 125
-508 246 -735 435 -87 72 -242 223 -295 286 -17 20 -52 62 -79 94 -79 93 -156
135 -366 196 -204 60 -312 74 -555 74 -182 1 -233 -3 -295 -18 -41 -10 -81
-23 -88 -29 -20 -15 -28 1 -12 26 7 12 15 56 18 97 4 63 0 89 -24 160 -37 114
-37 221 0 375 69 280 98 605 78 846 -16 187 -46 394 -72 494 -27 106 -100 327
-113 343 -12 15 -13 14 38 40 40 20 103 81 136 132 l17 25 23 -22 c13 -12 56
-37 94 -55 60 -28 81 -33 145 -33 61 0 86 5 134 28 43 20 74 27 118 27 32 0
75 7 96 16 51 22 155 21 189 -1 20 -14 47 -18 107 -18 71 0 89 4 143 31 34 18
66 40 72 49 9 17 11 17 25 -2 8 -11 16 -29 16 -39 0 -17 6 -18 61 -12 34 3 77
6 95 6 43 0 79 32 65 58 -16 30 -62 71 -101 89 -28 14 -45 33 -69 79 -40 76
-112 163 -160 190 -20 12 -88 50 -151 85 -63 35 -209 127 -325 204 -115 77
-248 164 -295 192 -79 47 -333 176 -425 215 -178 76 -470 178 -660 232 -49 14
-129 37 -176 51 -48 14 -93 25 -100 25 -50 0 -169 -254 -169 -358 0 -12 -3
-22 -7 -22 -5 0 -73 84 -152 186 -564 726 -1242 1312 -2012 1738 -191 105
-437 226 -548 271 -89 35 -100 37 -172 32 l-77 -5 -32 45 c-40 55 -156 142
-261 195 -104 53 -167 57 -224 14 -21 -16 -43 -42 -49 -58 -13 -35 -22 -35
-61 1 -93 88 -211 141 -325 148 -61 3 -81 1 -105 -14 l-29 -19 -56 33 c-67 41
-190 81 -285 93 -99 13 -355 12 -380 -2z"/>
</g>
</svg>
